<svg width="37" height="37" viewBox="0 0 37 37" fill="none" xmlns="http://www.w3.org/2000/svg">
<path d="M33.3333 11.6649C34.2174 11.6649 35.0652 12.0161 35.6904 12.6412C36.3155 13.2663 36.6667 14.1142 36.6667 14.9982V21.6649C36.6667 22.5489 36.3155 23.3968 35.6904 24.0219C35.0652 24.647 34.2174 24.9982 33.3333 24.9982H31.5633C31.157 28.2204 29.5888 31.1835 27.1529 33.3315C24.717 35.4796 21.581 36.6648 18.3333 36.6649V33.3315C20.9855 33.3315 23.529 32.278 25.4044 30.4026C27.2798 28.5272 28.3333 25.9837 28.3333 23.3315V13.3315C28.3333 10.6794 27.2798 8.13584 25.4044 6.26047C23.529 4.38511 20.9855 3.33154 18.3333 3.33154C15.6812 3.33154 13.1376 4.38511 11.2623 6.26047C9.3869 8.13584 8.33333 10.6794 8.33333 13.3315V24.9982H3.33333C2.44928 24.9982 1.60143 24.647 0.976311 24.0219C0.351189 23.3968 0 22.5489 0 21.6649V14.9982C0 14.1142 0.351189 13.2663 0.976311 12.6412C1.60143 12.0161 2.44928 11.6649 3.33333 11.6649H5.10333C5.51005 8.44303 7.07847 5.48033 9.51429 3.33267C11.9501 1.185 15.0859 0 18.3333 0C21.5807 0 24.7166 1.185 27.1524 3.33267C29.5882 5.48033 31.1566 8.44303 31.5633 11.6649H33.3333ZM11.2667 24.6399L13.0333 21.8132C14.6218 22.8083 16.4589 23.3346 18.3333 23.3315C20.2077 23.3346 22.0449 22.8083 23.6333 21.8132L25.4 24.6399C23.2821 25.9668 20.8326 26.6687 18.3333 26.6649C15.8341 26.6687 13.3846 25.9668 11.2667 24.6399Z" fill="#F9995D"/>
</svg>
